<svg xmlns="http://www.w3.org/2000/svg" fill="none" viewBox="0 0 14 15" id="Component"><path fill="#34a853" d="M4.87868 11.7064C4.48815 11.3159 4.48815 10.6827 4.87868 10.2922L6.71715 8.45374C6.87336 8.29753 7.12663 8.29753 7.28284 8.45374L9.1213 10.2922C9.51182 10.6827 9.51182 11.3159 9.1213 11.7064L7.70708 13.1206C7.31656 13.5112 6.68339 13.5112 6.29287 13.1206L4.87868 11.7064zM7.9535 7.78295C7.79729 7.62674 7.79729 7.37347 7.9535 7.21726L9.79197 5.37878C10.1825 4.98826 10.8157 4.98826 11.2062 5.37878L12.6204 6.79298C13.0109 7.1835 13.0109 7.81667 12.6204 8.20719L11.2062 9.62141C10.8156 10.0119 10.1825 10.0119 9.79196 9.62141L7.9535 7.78295zM4.87868 4.70789C4.48815 4.31737 4.48815 3.6842 4.87868 3.29368L6.29289 1.87946C6.68341 1.48894 7.31658 1.48894 7.7071 1.87946L9.1213 3.29366C9.51182 3.68418 9.51182 4.31735 9.1213 4.70787L7.28282 6.54635C7.12661 6.70256 6.87334 6.70256 6.71713 6.54635L4.87868 4.70789zM1.37947 8.20722C.98895 7.8167.988949 7.18353 1.37947 6.79301L2.79369 5.37879C3.18421 4.98827 3.81738 4.98827 4.2079 5.37879L6.04636 7.21725C6.20257 7.37346 6.20257 7.62673 6.04636 7.78294L4.20788 9.62141C3.81736 10.0119 3.18419 10.0119 2.79367 9.62141L1.37947 8.20722z" class="color000000 svgShape"></path></svg>